<?xml version="1.0" encoding="UTF-8"?>
<svg xmlns="http://www.w3.org/2000/svg" xmlns:xlink="http://www.w3.org/1999/xlink" viewBox="0 0 411.55 411.55">
  <defs>
    <style>
      .cls-1 {
        fill: url(#_新建渐变色板_7);
      }

      .cls-2 {
        fill: url(#_未命名的渐变_8);
      }

      .cls-2, .cls-3, .cls-4, .cls-5 {
        mix-blend-mode: multiply;
        opacity: .3;
      }

      .cls-6 {
        fill: url(#_新建渐变色板_4);
      }

      .cls-7 {
        isolation: isolate;
      }

      .cls-8 {
        fill: url(#_新建渐变色板_5);
      }

      .cls-3 {
        fill: url(#_未命名的渐变_8-2);
      }

      .cls-4 {
        fill: url(#_未命名的渐变_8-4);
      }

      .cls-5 {
        fill: url(#_未命名的渐变_8-3);
      }

      .cls-9 {
        fill: url(#_未命名的渐变_2);
      }
    </style>
    <linearGradient id="_新建渐变色板_5" data-name="新建渐变色板 5" x1="194.88" y1="177.73" x2="197.85" y2="424.45" gradientTransform="translate(168.43 -62.84) rotate(6.62)" gradientUnits="userSpaceOnUse">
      <stop offset="0" stop-color="#f0782c"/>
      <stop offset=".2" stop-color="#f0732e"/>
      <stop offset=".42" stop-color="#f16637"/>
      <stop offset=".64" stop-color="#f45044"/>
      <stop offset=".88" stop-color="#f73157"/>
      <stop offset="1" stop-color="#fa1e64"/>
    </linearGradient>
    <linearGradient id="_未命名的渐变_2" data-name="未命名的渐变 2" x1="-35.32" y1="160.54" x2="-127.93" y2="355.39" gradientTransform="translate(168.43 -62.84) rotate(6.62)" gradientUnits="userSpaceOnUse">
      <stop offset="0" stop-color="#0084f2"/>
      <stop offset=".6" stop-color="#00b7fa"/>
      <stop offset="1" stop-color="#00d6ff"/>
    </linearGradient>
    <linearGradient id="_未命名的渐变_8" data-name="未命名的渐变 8" x1="1240.92" y1="2451.41" x2="1363.91" y2="2541.79" gradientTransform="translate(1086.84 2912.98) rotate(-173.38)" gradientUnits="userSpaceOnUse">
      <stop offset=".35" stop-color="#fff"/>
      <stop offset=".41" stop-color="#f9f9f9"/>
      <stop offset=".49" stop-color="#e9e9e9"/>
      <stop offset=".58" stop-color="#cfcfcf"/>
      <stop offset=".68" stop-color="#aaa"/>
      <stop offset=".78" stop-color="#7b7b7b"/>
      <stop offset=".89" stop-color="#414141"/>
      <stop offset="1" stop-color="#000"/>
    </linearGradient>
    <linearGradient id="_新建渐变色板_7" data-name="新建渐变色板 7" x1="1917.01" y1="780.7" x2="1919.97" y2="1027.41" gradientTransform="translate(-860.28 1884.27) rotate(-83.38)" gradientUnits="userSpaceOnUse">
      <stop offset="0" stop-color="#00c4ff"/>
      <stop offset="1" stop-color="#00f0be"/>
    </linearGradient>
    <linearGradient id="_新建渐变色板_4" data-name="新建渐变色板 4" x1="-42.66" y1="346.89" x2="178.86" y2="476.54" gradientTransform="translate(168.43 -62.84) rotate(6.62)" gradientUnits="userSpaceOnUse">
      <stop offset="0" stop-color="#8254f0"/>
      <stop offset=".14" stop-color="#7857f1"/>
      <stop offset=".37" stop-color="#605ff3"/>
      <stop offset=".66" stop-color="#386df8"/>
      <stop offset=".99" stop-color="#0181fe"/>
      <stop offset="1" stop-color="#0082ff"/>
    </linearGradient>
    <linearGradient id="_未命名的渐变_8-2" data-name="未命名的渐变 8" x1="-481.2" y1="1848.44" x2="-358.21" y2="1938.83" gradientTransform="translate(2115.55 965.87) rotate(96.62)" xlink:href="#_未命名的渐变_8"/>
    <linearGradient id="_未命名的渐变_8-3" data-name="未命名的渐变 8" x1="1843.89" y1="729.28" x2="1966.88" y2="819.67" gradientTransform="translate(-860.28 1884.27) rotate(-83.38)" xlink:href="#_未命名的渐变_8"/>
    <linearGradient id="_未命名的渐变_8-4" data-name="未命名的渐变 8" x1="121.77" y1="126.32" x2="244.75" y2="216.7" gradientTransform="translate(168.43 -62.84) rotate(6.62)" xlink:href="#_未命名的渐变_8"/>
  </defs>
  <g class="cls-7">
    <g id="_图层_2" data-name="图层_2">
      <g id="_图层_1-2" data-name="图层_1">
        <g>
          <g>
            <path class="cls-8" d="M411.49,210.54c1.03-32.45-10.93-72.68-33.84-97.13-3.78-4.04-11.01-12.39-17.74-10.94-3.83.82-1.4,5.58-3.54,23.98-4.67,40.28-35.39,42.06-34.37,51.95.7,6.79,16.11,6.93,20.35,7.3,7.35.64,22.46-.07,23.99,9.6,1.11,7.02-6.96,16.67-12.11,20.55-17.19,12.96-40.13,20.44-59.98,28.39-21.87,8.75-46.78,20.94-46.89,48.85-.1,24.97,17.14,42.67,38.86,49.02,7.45,2.18,15.42,3.02,23.4,2.37,34.44-2.82,62.05-26.58,79.03-55.41,13.9-23.61,21.97-51.14,22.84-78.54Z"/>
            <g>
              <path class="cls-9" d="M.06,201.02c-1.03,32.45,10.93,72.68,33.84,97.13,3.78,4.04,11.01,12.39,17.74,10.94,3.83-.82,1.4-5.58,3.54-23.98,4.67-40.28,35.39-42.06,34.37-51.95-.7-6.79-16.11-6.93-20.35-7.3-7.35-.64-22.46.07-23.99-9.6-1.11-7.02,6.96-16.67,12.11-20.55,17.19-12.96,40.13-20.44,59.98-28.39,21.87-8.75,46.78-20.94,46.89-48.85.1-24.97-17.14-42.67-38.86-49.02-7.45-2.18-15.42-3.02-23.4-2.37-34.44,2.82-62.05,26.58-79.03,55.41C8.99,146.09.93,173.62.06,201.02Z"/>
              <path class="cls-2" d="M50.67,201.8c-30.79,32.46-20.34,77.1-10.14,102.96,3.39,2.87,7.33,5.14,11.11,4.33,3.83-.82,1.4-5.58,3.54-23.98,4.67-40.28,35.39-42.06,34.37-51.95-.7-6.79-16.11-6.93-20.35-7.3-7.35-.64-22.46.07-23.99-9.6-.7-4.43,2.25-9.9,5.82-14.31l-.35-.15Z"/>
            </g>
            <path class="cls-1" d="M210.54.06c-32.45-1.03-72.68,10.93-97.13,33.84-4.04,3.78-12.39,11.01-10.94,17.74.82,3.83,5.58,1.4,23.98,3.54,40.28,4.67,42.06,35.39,51.95,34.37,6.79-.7,6.93-16.11,7.3-20.35.64-7.35-.07-22.46,9.6-23.99,7.02-1.11,16.67,6.96,20.55,12.11,12.96,17.19,20.44,40.13,28.39,59.98,8.75,21.87,20.94,46.78,48.85,46.89,24.97.1,42.67-17.14,49.02-38.86,2.18-7.45,3.02-15.42,2.37-23.4-2.82-34.44-26.58-62.05-55.41-79.03C265.46,8.99,237.93.93,210.54.06Z"/>
            <g>
              <path class="cls-6" d="M201.02,411.49c32.45,1.03,72.68-10.93,97.13-33.84,4.04-3.78,12.39-11.01,10.94-17.74-.82-3.83-5.58-1.4-23.98-3.54-40.28-4.67-42.06-35.39-51.95-34.37-6.79.7-6.93,16.11-7.3,20.35-.64,7.35.07,22.46-9.6,23.99-7.02,1.11-16.67-6.96-20.55-12.11-12.96-17.19-20.44-40.13-28.39-59.98-8.75-21.87-20.94-46.78-48.85-46.89-24.97-.1-42.67,17.14-49.02,38.86-2.18,7.45-3.02,15.42-2.37,23.4,2.82,34.44,26.58,62.05,55.41,79.03,23.61,13.9,51.14,21.97,78.54,22.84Z"/>
              <path class="cls-3" d="M304.75,371.02c2.87-3.39,5.14-7.33,4.33-11.11-.82-3.83-5.58-1.4-23.98-3.54-40.28-4.67-42.06-35.39-51.95-34.37-6.79.7-6.93,16.11-7.3,20.35-.64,7.35.07,22.46-9.6,23.99-4.43.7-9.9-2.25-14.31-5.82l-.15.35c32.46,30.79,77.1,20.34,102.96,10.14Z"/>
            </g>
          </g>
          <path class="cls-5" d="M106.8,40.53c-2.87,3.39-5.14,7.33-4.33,11.11.82,3.83,5.58,1.4,23.98,3.54,40.28,4.67,42.06,35.39,51.95,34.37,6.79-.7,6.93-16.11,7.3-20.35.64-7.35-.07-22.46,9.6-23.99,4.43-.7,9.9,2.25,14.31,5.82l.15-.35c-32.46-30.79-77.1-20.34-102.96-10.14Z"/>
          <path class="cls-4" d="M371.02,106.8c-3.39-2.87-7.33-5.14-11.11-4.33-3.83.82-1.4,5.58-3.54,23.98-4.67,40.28-35.39,42.06-34.37,51.95.7,6.79,16.11,6.93,20.35,7.3,7.35.64,22.46-.07,23.99,9.6.7,4.43-2.25,9.9-5.82,14.31l.35.15c30.79-32.46,20.34-77.1,10.14-102.96Z"/>
        </g>
      </g>
    </g>
  </g>
</svg>