<?xml version="1.0" encoding="UTF-8"?>
<svg xmlns="http://www.w3.org/2000/svg" xmlns:xlink="http://www.w3.org/1999/xlink" viewBox="0 0 518.41 124.63">
  <defs>
    <style>
      .cls-1 {
        fill: #595757;
      }

      .cls-2 {
        fill: url(#_未命名的渐变_8);
      }

      .cls-2, .cls-3, .cls-4, .cls-5 {
        mix-blend-mode: multiply;
        opacity: .3;
      }

      .cls-6 {
        fill: url(#_未命名的渐变_2);
      }

      .cls-7 {
        isolation: isolate;
      }

      .cls-8 {
        fill: url(#_新建渐变色板_7);
      }

      .cls-9 {
        fill: url(#_新建渐变色板_4);
      }

      .cls-10 {
        fill: url(#_新建渐变色板_5);
      }

      .cls-3 {
        fill: url(#_未命名的渐变_8-2);
      }

      .cls-4 {
        fill: url(#_未命名的渐变_8-3);
      }

      .cls-5 {
        fill: url(#_未命名的渐变_8-4);
      }
    </style>
    <linearGradient id="_新建渐变色板_5" data-name="新建渐变色板 5" x1="-21.38" y1="9.42" x2="-20.48" y2="84.13" gradientTransform="translate(125.75 34.34) rotate(6.62)" gradientUnits="userSpaceOnUse">
      <stop offset="0" stop-color="#f0782c"/>
      <stop offset=".2" stop-color="#f0732e"/>
      <stop offset=".42" stop-color="#f16637"/>
      <stop offset=".64" stop-color="#f45044"/>
      <stop offset=".88" stop-color="#f73157"/>
      <stop offset="1" stop-color="#fa1e64"/>
    </linearGradient>
    <linearGradient id="_未命名的渐变_2" data-name="未命名的渐变 2" x1="-91.09" y1="4.21" x2="-119.13" y2="63.22" gradientTransform="translate(125.75 34.34) rotate(6.62)" gradientUnits="userSpaceOnUse">
      <stop offset="0" stop-color="#0084f2"/>
      <stop offset=".6" stop-color="#00b7fa"/>
      <stop offset="1" stop-color="#00d6ff"/>
    </linearGradient>
    <linearGradient id="_未命名的渐变_8" data-name="未命名的渐变 8" x1="-392.14" y1="2132.76" x2="-354.9" y2="2160.13" gradientTransform="translate(-593.94 2174.76) rotate(-173.38)" gradientUnits="userSpaceOnUse">
      <stop offset=".35" stop-color="#fff"/>
      <stop offset=".41" stop-color="#f9f9f9"/>
      <stop offset=".49" stop-color="#e9e9e9"/>
      <stop offset=".58" stop-color="#cfcfcf"/>
      <stop offset=".68" stop-color="#aaa"/>
      <stop offset=".78" stop-color="#7b7b7b"/>
      <stop offset=".89" stop-color="#414141"/>
      <stop offset="1" stop-color="#000"/>
    </linearGradient>
    <linearGradient id="_新建渐变色板_7" data-name="新建渐变色板 7" x1="873.76" y1="1253.18" x2="874.66" y2="1327.89" gradientTransform="translate(-1304.3 744.71) rotate(-83.38)" gradientUnits="userSpaceOnUse">
      <stop offset="0" stop-color="#00c4ff"/>
      <stop offset="1" stop-color="#00f0be"/>
    </linearGradient>
    <linearGradient id="_新建渐变色板_4" data-name="新建渐变色板 4" x1="-93.31" y1="60.64" x2="-26.23" y2="99.91" gradientTransform="translate(125.75 34.34) rotate(6.62)" gradientUnits="userSpaceOnUse">
      <stop offset="0" stop-color="#8254f0"/>
      <stop offset=".14" stop-color="#7857f1"/>
      <stop offset=".37" stop-color="#605ff3"/>
      <stop offset=".66" stop-color="#386df8"/>
      <stop offset=".99" stop-color="#0181fe"/>
      <stop offset="1" stop-color="#0082ff"/>
    </linearGradient>
    <linearGradient id="_未命名的渐变_8-2" data-name="未命名的渐变 8" x1="-1287.28" y1="889" x2="-1250.04" y2="916.37" gradientTransform="translate(836.11 1464.39) rotate(96.62)" xlink:href="#_未命名的渐变_8"/>
    <linearGradient id="_未命名的渐变_8-3" data-name="未命名的渐变 8" x1="851.62" y1="1237.61" x2="888.87" y2="1264.98" gradientTransform="translate(-1304.3 744.71) rotate(-83.38)" xlink:href="#_未命名的渐变_8"/>
    <linearGradient id="_未命名的渐变_8-4" data-name="未命名的渐变 8" x1="-43.52" y1="-6.15" x2="-6.28" y2="21.22" gradientTransform="translate(125.75 34.34) rotate(6.62)" xlink:href="#_未命名的渐变_8"/>
  </defs>
  <g class="cls-7">
    <g id="_图层_2" data-name="图层 2">
      <g id="_图层_1-2" data-name="图层 1">
        <g>
          <g>
            <path class="cls-1" d="m340.99,29.92v-3.91c0-1.5,1.21-2.71,2.71-2.71h76.24c1.5,0,2.71,1.21,2.71,2.71v3.91c0,1.5-1.21,2.71-2.71,2.71h-33.97l-2.42,12.05h30.76c1.5,0,2.71,1.21,2.71,2.71v44.42c0,8.05-6.53,14.57-14.57,14.57h-53.12c-1.5,0-2.71-1.21-2.71-2.71v-56.28c0-1.5,1.21-2.71,2.71-2.71h23.84l2.42-12.05h-31.89c-1.5,0-2.71-1.21-2.71-2.71Zm14.97,24.47v16.67h51.72v-16.67h-51.72Zm0,25.99v17.23h46.04c3.14,0,5.68-2.54,5.68-5.68v-11.55h-51.72Z"/>
            <g>
              <path class="cls-1" d="m297.33,58.78V26.29c0-1.22.99-2.21,2.21-2.21h27.76c1.22,0,2.21.99,2.21,2.21v22.22c0,6.9-5.59,12.49-12.49,12.49h-17.48c-1.22,0-2.21-.99-2.21-2.21Zm8.3-26.15v20.2h7.84c4.27,0,7.73-3.46,7.73-7.73v-12.47h-15.57Z"/>
              <path class="cls-1" d="m261.35,66.89c6.23-3.89,10.38-7.9,12.46-12.05.92.52,2.08,1.43,3.46,2.72,4.09,3.28,7.44,6.01,10.05,8.18.73.61,1.81.42,2.32-.38l3.06-4.91c.45-.73.24-1.68-.48-2.14-.78-.5-1.72-1.14-2.83-1.92-5.31-3.63-9.23-6.35-11.76-8.16h14.7c.86,0,1.56-.7,1.56-1.56v-4.65c0-.86-.7-1.56-1.56-1.56h-13.66c.23-.78.35-2.2.35-4.27.23-1.81.35-3.24.35-4.27h10.55c.86,0,1.56-.7,1.56-1.56v-4.65c0-.86-.7-1.56-1.56-1.56h-24.79c.57-1.63,1.07-4.23,1.34-6.2.13-.93-.6-1.76-1.54-1.76h-5.43c-.75,0-1.39.52-1.53,1.26-.72,3.83-2.6,12.42-5.71,19.11-.48,1.03.26,2.21,1.4,2.21h5.64c.59,0,1.12-.33,1.39-.85.66-1.3,1.91-3.87,2.64-6h7.39c0,3.11-.23,5.96-.69,8.55h-17.47c-.86,0-1.56.7-1.56,1.56v4.65c0,.86.7,1.56,1.56,1.56h15.74c-2.16,5.1-7.57,9.52-16.22,13.25-.91.39-1.23,1.5-.68,2.31.73,1.08,1.98,3.46,3,5.06.62.97,1.9,1.26,2.87.64,1.91-1.21,4.1-2.62,4.1-2.62Z"/>
              <path class="cls-1" d="m258.67,68.07v35.99c0,1.33,1.08,2.41,2.41,2.41h55.15c5.18,0,9.39-4.2,9.39-9.39v-29.02c0-1.33-1.08-2.41-2.41-2.41h-62.12c-1.33,0-2.41,1.08-2.41,2.41Zm53.83,29.93h-44.83v-8.64h48.61v4.87c0,2.09-1.69,3.78-3.78,3.78Zm3.78-15.91h-48.61v-8.86h48.61v8.86Z"/>
            </g>
            <g>
              <g>
                <path class="cls-1" d="m445.01,104.54c-.69,1.23-1.99,1.97-3.4,1.95-1.69-.03-4.08-.05-5.85-.02-1.18.02-1.98-1.2-1.48-2.27,2.12-4.55,6.61-14.59,7.32-19.12,1.15-5.7,1.73-14.12,1.73-25.26v-28.65c0-1.34,1.09-2.43,2.43-2.43h69.53c1.34,0,2.43,1.09,2.43,2.43v4.46c0,1.34-1.09,2.43-2.43,2.43h-60.53c-1.34,0-2.43,1.09-2.43,2.43v18.94c.68,27.62-4.74,40.56-7.31,45.1Z"/>
                <path class="cls-1" d="m452.67,104.26v-4.57c0-1.21.98-2.19,2.19-2.19h36.57c5.06-15.32,9.6-31,13.61-47.03.31-1.24,1.61-1.95,2.83-1.54l4.79,1.65c1.1.38,1.7,1.56,1.39,2.67-5.28,18.49-9.71,33.24-13.27,44.24h15.46c1.21,0,2.19.98,2.19,2.19v4.57c0,1.21-.98,2.19-2.19,2.19h-61.37c-1.21,0-2.19-.98-2.19-2.19Z"/>
                <path class="cls-1" d="m483.79,85.15c-1.23.31-2.46-.49-2.68-1.74-1.23-7.06-3.29-17.56-6.18-31.49-.08-.52-.16-1-.23-1.44-.21-1.16.52-2.28,1.67-2.54l4.42-.99c1.17-.26,2.34.46,2.61,1.63.62,2.66,1.37,6.1,2.27,10.33.86,4.38,2.44,11.85,4.74,22.41.25,1.15-.46,2.3-1.61,2.59l-5,1.25Z"/>
                <path class="cls-1" d="m465.28,87.75c-1.96-8.8-4.72-19.88-8.27-33.24-.3-1.15.36-2.33,1.5-2.67l3.88-1.14c1.14-.33,2.33.29,2.69,1.42,1.95,6.08,4.26,14.34,6.95,24.79.86,3.29,1.59,6,2.2,8.13.32,1.11-.3,2.27-1.39,2.65l-4.71,1.63c-1.23.43-2.56-.31-2.84-1.58Z"/>
              </g>
              <path class="cls-1" d="m478.29,31.8c-.23-.79-1.57-5.03-2.03-6.88-.75-2.58-1.31-4.6-1.67-6.06-.24-.99.44-1.96,1.46-2.07l7.33-.81c.86-.09,1.64.46,1.83,1.3.35,1.54.94,3.82,1.77,6.85.46,2.12,1.8,6.62,2.03,7.67"/>
            </g>
            <g>
              <path class="cls-1" d="m161.39,37.96h4.82c.89,0,1.69-.53,2.04-1.36l.06-.14c.31-.74.53-1.27,1.24-4.62l.12-.55h9.66l-.16.83c-.06.35-.14.72-.22,1.13-.62,3.12-1.25,5.58-1.82,7.12-.17.46-.15.85.07,1.16.38.55,1.25.62,1.96.62h4.18c.88,0,1.65-.5,1.97-1.28.47-1.16.51-1.25,1.77-7.35.85-4.12,1.13-7.45,1.13-8.41v-.71c0-.77-.63-1.4-1.4-1.4h-15.59l.09-.78c.18-1.48.29-2.86.31-3.06.02-.22.03-.43.05-.66.04-.44-.14-.87-.47-1.19-.33-.28-.64-.4-1-.41h-5.3s-.15,0-.2.01c-.26.04-.52.17-.75.38l-.07.07c-.36.39-.44.96-.47,1.36-.29,3.74-.45,4.88-1.09,8.52-.58,3.32-1.49,6.66-2.09,8.5-.23.7-.38,1.28-.05,1.74.23.32.63.47,1.22.47Z"/>
              <path class="cls-1" d="m158.62,97.43h30.36c.77,0,1.39.62,1.39,1.39v5.5c0,.77-.63,1.4-1.4,1.4h-30.36c-.77,0-1.4-.63-1.4-1.4v-5.5c0-.77.63-1.4,1.4-1.4Z"/>
              <path class="cls-1" d="m195.72,29.07h41.67c.77,0,1.39.62,1.39,1.39v5.51c0,.77-.62,1.39-1.39,1.39h-41.67c-.77,0-1.39-.62-1.39-1.39v-5.51c0-.77.62-1.39,1.39-1.39Z"/>
              <path class="cls-1" d="m205.3,16.91h22.51c.75,0,1.35.61,1.35,1.35v5.6c0,.74-.6,1.35-1.35,1.35h-22.51c-.75,0-1.35-.61-1.35-1.35v-5.59c0-.75.61-1.35,1.35-1.35Z"/>
              <path class="cls-1" d="m187.58,44.17h-24.96c-1.54,0-2.79,1.25-2.79,2.79v42.32c0,1.54,1.25,2.74,2.83,2.74h24.96c1.54,0,2.75-1.25,2.75-2.84v-42.22c0-1.54-1.25-2.79-2.79-2.79Zm-16.09,40.64h-4.45v-13.11h4.45v13.11Zm0-20.32h-4.45v-13.11s4.45,0,4.45,0v13.11Zm11.67,20.32h-4.45v-13.11h4.45v13.11Zm0-20.32h-4.45v-13.11h4.45v13.11Z"/>
              <path class="cls-1" d="m236.4,58.35v-13.43c0-1.84-1.5-3.34-3.34-3.34h-33.02c-1.84,0-3.33,1.49-3.33,3.33v20.35c0,1.87,1.52,3.39,3.39,3.39h12.71l.03,28.14c0,1.44.02,3.24-.82,4.08-.34.34-.81.51-1.43.51h-1.27c-.76.02-1.34.6-1.36,1.4v4.54c.02.73.56,1.29,1.3,1.34h3.39c7.46,0,8.46-5.74,8.46-11.36v-28.65h5c5.68,0,10.3-4.62,10.3-10.3Zm-32.19,3.17l-.05-12.76,24.76-.04v9.43c0,1.86-1.52,3.38-3.38,3.38h-21.33Z"/>
              <path class="cls-1" d="m208.53,73.9v-.04s0-.84,0-.84c0-.77-.63-1.4-1.4-1.4h-5.19c-.77,0-1.4.63-1.4,1.41v.86c.07,2.81-.42,8.23-1.31,14.47-.77,5.42-1.43,7.78-2.19,10.51-.33,1.2-.68,2.45-1.06,4.05-.05.2-.2,1.1-.23,1.26-.05.37.05.74.28,1.03s.58.49.95.53h4.83c.98,0,1.81-.57,2.01-1.38.1-.4.22-.85.35-1.35.74-2.8,1.87-7.02,3.08-14.68.4-3.35,1.22-10.38,1.27-14.37v-.05Z"/>
              <path class="cls-1" d="m238.15,103.98l-.23-1.07c-.38-1.69-.76-3.04-1.12-4.34-.73-2.61-1.43-5.08-2.16-10.22-.89-6.25-1.38-11.67-1.31-14.51v-.82c0-.77-.63-1.4-1.4-1.4h-5.19c-.77,0-1.4.63-1.4,1.41v.84c.04,3.97.88,11.11,1.28,14.53,1.2,7.57,2.33,11.8,3.07,14.6.13.5.25.94.36,1.35.21.81,1.04,1.38,2.01,1.38h4.84c.34,0,.68-.16.93-.43.28-.31.41-.72.36-1.12l-.02-.19Z"/>
            </g>
          </g>
          <g>
            <g>
              <path class="cls-10" d="m124.61,63.75c.31-9.83-3.31-22.01-10.25-29.41-1.15-1.22-3.33-3.75-5.37-3.31-1.16.25-.42,1.69-1.07,7.26-1.42,12.2-10.72,12.74-10.41,15.73.21,2.06,4.88,2.1,6.16,2.21,2.23.19,6.8-.02,7.26,2.91.34,2.13-2.11,5.05-3.67,6.22-5.2,3.92-12.15,6.19-18.16,8.6-6.62,2.65-14.17,6.34-14.2,14.79-.03,7.56,5.19,12.92,11.77,14.85,2.26.66,4.67.92,7.09.72,10.43-.85,18.79-8.05,23.93-16.78,4.21-7.15,6.65-15.49,6.92-23.78Z"/>
              <g>
                <path class="cls-6" d="m.02,60.87c-.31,9.83,3.31,22.01,10.25,29.41,1.15,1.22,3.33,3.75,5.37,3.31,1.16-.25.42-1.69,1.07-7.26,1.42-12.2,10.72-12.74,10.41-15.73-.21-2.06-4.88-2.1-6.16-2.21-2.23-.19-6.8.02-7.26-2.91-.34-2.13,2.11-5.05,3.67-6.22,5.2-3.92,12.15-6.19,18.16-8.6,6.62-2.65,14.17-6.34,14.2-14.79.03-7.56-5.19-12.92-11.77-14.85-2.26-.66-4.67-.92-7.09-.72-10.43.85-18.79,8.05-23.93,16.78C2.72,44.24.28,52.58.02,60.87Z"/>
                <path class="cls-2" d="m15.34,61.11c-9.33,9.83-6.16,23.35-3.07,31.18,1.03.87,2.22,1.56,3.36,1.31,1.16-.25.42-1.69,1.07-7.26,1.42-12.2,10.72-12.74,10.41-15.73-.21-2.06-4.88-2.1-6.16-2.21-2.23-.19-6.8.02-7.26-2.91-.21-1.34.68-3,1.76-4.33l-.11-.05Z"/>
              </g>
              <path class="cls-8" d="m63.75.02c-9.83-.31-22.01,3.31-29.41,10.25-1.22,1.15-3.75,3.33-3.31,5.37.25,1.16,1.69.42,7.26,1.07,12.2,1.42,12.74,10.72,15.73,10.41,2.06-.21,2.1-4.88,2.21-6.16.19-2.23-.02-6.8,2.91-7.26,2.13-.34,5.05,2.11,6.22,3.67,3.92,5.2,6.19,12.15,8.6,18.16,2.65,6.62,6.34,14.17,14.79,14.2,7.56.03,12.92-5.19,14.85-11.77.66-2.26.92-4.67.72-7.09-.85-10.43-8.05-18.79-16.78-23.93C80.39,2.72,72.05.28,63.75.02Z"/>
              <g>
                <path class="cls-9" d="m60.87,124.61c9.83.31,22.01-3.31,29.41-10.25,1.22-1.15,3.75-3.33,3.31-5.37-.25-1.16-1.69-.42-7.26-1.07-12.2-1.42-12.74-10.72-15.73-10.41-2.06.21-2.1,4.88-2.21,6.16-.19,2.23.02,6.8-2.91,7.26-2.13.34-5.05-2.11-6.22-3.67-3.92-5.2-6.19-12.15-8.6-18.16-2.65-6.62-6.34-14.17-14.79-14.2-7.56-.03-12.92,5.19-14.85,11.77-.66,2.26-.92,4.67-.72,7.09.85,10.43,8.05,18.79,16.78,23.93,7.15,4.21,15.49,6.65,23.78,6.92Z"/>
                <path class="cls-3" d="m92.29,112.35c.87-1.03,1.56-2.22,1.31-3.36-.25-1.16-1.69-.42-7.26-1.07-12.2-1.42-12.74-10.72-15.73-10.41-2.06.21-2.1,4.88-2.21,6.16-.19,2.23.02,6.8-2.91,7.26-1.34.21-3-.68-4.33-1.76l-.05.11c9.83,9.33,23.35,6.16,31.18,3.07Z"/>
              </g>
            </g>
            <path class="cls-4" d="m32.34,12.27c-.87,1.03-1.56,2.22-1.31,3.36.25,1.16,1.69.42,7.26,1.07,12.2,1.42,12.74,10.72,15.73,10.41,2.06-.21,2.1-4.88,2.21-6.16.19-2.23-.02-6.8,2.91-7.26,1.34-.21,3,.68,4.33,1.76l.05-.11c-9.83-9.33-23.35-6.16-31.18-3.07Z"/>
            <path class="cls-5" d="m112.35,32.34c-1.03-.87-2.22-1.56-3.36-1.31-1.16.25-.42,1.69-1.07,7.26-1.42,12.2-10.72,12.74-10.41,15.73.21,2.06,4.88,2.1,6.16,2.21,2.23.19,6.8-.02,7.26,2.91.21,1.34-.68,3-1.76,4.33l.11.05c9.33-9.83,6.16-23.35,3.07-31.18Z"/>
          </g>
        </g>
      </g>
    </g>
  </g>
</svg>