<svg fill="none" xmlns="http://www.w3.org/2000/svg" viewBox="0 0 18 18" class="design-iconfont">
  <path d="M7.24805 1.70117C7.3678 1.72808 7.47756 1.79365 7.55762 1.88965L9.26465 3.9375H15.375C16.0998 3.9375 16.6873 4.52528 16.6875 5.25V15C16.6873 15.7247 16.0998 16.3125 15.375 16.3125H2.625C1.90042 16.3123 1.3127 15.7246 1.3125 15V3C1.3127 2.27542 1.90042 1.6877 2.625 1.6875H7.125L7.24805 1.70117Z" fill="url(#lya6r0zdz__paint0_linear_15522_33854)"/>
  <path d="M8.85883 8.10729C8.89765 7.96371 9.10124 7.96374 9.14008 8.10729L9.18208 8.26012C9.45218 9.2633 10.2355 10.0476 11.2387 10.3177L11.3925 10.3588C11.5357 10.3977 11.5357 10.601 11.3925 10.64L11.2387 10.682C10.2356 10.9521 9.45219 11.7355 9.18208 12.7386L9.14008 12.8924C9.10093 13.0353 8.89788 13.0354 8.85883 12.8924L8.81782 12.7386C8.54771 11.7354 7.76338 10.9521 6.7602 10.682L6.60786 10.64C6.46405 10.6013 6.46405 10.3975 6.60786 10.3588L6.7602 10.3177C7.76336 10.0476 8.54769 9.26327 8.81782 8.26012L8.85883 8.10729Z" fill="#fff"/>
  <path d="M11.4394 6.97399C11.456 6.91232 11.5434 6.91232 11.56 6.97399L11.5781 7.03941C11.6939 7.46954 12.0298 7.80592 12.4599 7.92174L12.5258 7.93932C12.5873 7.95601 12.5872 8.0432 12.5258 8.05992L12.4599 8.07799C12.0298 8.19384 11.6939 8.52969 11.5781 8.95982L11.56 9.02574C11.5432 9.08698 11.4562 9.08702 11.4394 9.02574L11.4218 8.95982C11.306 8.52964 10.9697 8.19381 10.5395 8.07799L10.4741 8.05992C10.4124 8.04331 10.4125 7.95598 10.4741 7.93932L10.5395 7.92174C10.9696 7.80593 11.306 7.46953 11.4218 7.03941L11.4394 6.97399Z" fill="#fff"/>
  <defs>
    <linearGradient id="lya6r0zdz__paint0_linear_15522_33854" x1="9" y1="16.3125" x2="9" y2="1.6875" gradientUnits="userSpaceOnUse">
      <stop stop-color="#165DFF"/>
      <stop offset="1" stop-color="#16BDFF"/>
    </linearGradient>
  </defs>
</svg>
