<svg width="131" height="106" viewBox="0 0 131 106" fill="none" xmlns="http://www.w3.org/2000/svg">
<path fill-rule="evenodd" clip-rule="evenodd" d="M130.484 85.6875L130.438 86.4688L130.297 87.2656L130.047 88.0469L129.719 88.8438L129.266 89.6563L128.766 90.3906L128.172 91.125L127.469 91.8906L126.641 92.6562L125.703 93.4375L124.516 94.2969L123.172 95.1562L121.656 96.0313L119.938 96.9062L118.234 97.6875L116.359 98.4688L114.328 99.2344L112.094 100L107.563 101.312L102.531 102.516L97.3125 103.531L91.7188 104.375L87.9375 104.844L84.0312 105.219L80 105.531L75.9531 105.75L71.8594 105.875L67.6875 105.922L63.5156 105.875L59.4063 105.75L55.375 105.531L51.3438 105.219L47.4375 104.844L43.6562 104.375L38.0625 103.531L32.8438 102.516L27.8125 101.312L23.2812 100L21.0469 99.2344L19.0156 98.4688L17.1406 97.6875L15.4375 96.9062L13.7188 96.0313L12.2031 95.1562L10.8594 94.2969L9.67188 93.4375L8.73437 92.6562L7.90625 91.8906L7.20312 91.125L6.60938 90.3906L6.10937 89.6563L5.65625 88.8438L5.32812 88.0469L5.07812 87.2656L4.9375 86.4688L4.89062 85.6875L4.9375 84.9062L5.07812 84.1094L5.32812 83.3281L5.65625 82.5312L6.10937 81.7187L6.60938 80.9844L7.20312 80.2344L7.90625 79.4844L8.73437 78.7188L9.67188 77.9375L10.8594 77.0781L12.2031 76.2188L13.7188 75.3437L15.4375 74.4531L17.1406 73.6719L19.0156 72.9063L21.0469 72.1406L23.2812 71.375L27.8125 70.0625L32.8438 68.8594L38.0625 67.8437L43.6562 67L47.4375 66.5313L51.3438 66.1562L55.375 65.8438L59.4063 65.625L63.5156 65.5L67.6875 65.4531L71.8594 65.5L75.9531 65.625L80 65.8438L84.0312 66.1562L87.9375 66.5313L91.7188 67L97.3125 67.8437L102.531 68.8594L107.563 70.0625L112.094 71.375L114.328 72.1406L116.359 72.9063L118.234 73.6719L119.938 74.4531L121.656 75.3437L123.172 76.2188L124.516 77.0781L125.703 77.9375L126.641 78.7188L127.469 79.4844L128.172 80.2344L128.766 80.9844L129.266 81.7187L129.719 82.5312L130.047 83.3281L130.297 84.1094L130.438 84.9062L130.484 85.6875Z" fill="#F2F4FF"/>
<path fill-rule="evenodd" clip-rule="evenodd" d="M24.5625 29.3125L77.2188 36.2656V88.3594L27.0625 82.3281L26.5938 82.2344L26.1719 82.0625L25.7813 81.8438L25.4219 81.5469L25.125 81.2188L24.8906 80.8281L24.7031 80.4219L24.5937 79.9688L24.5625 79.5V29.3125Z" fill="white"/>
<path d="M24.5625 29.3125L77.2188 36.2656V88.3594L27.0625 82.3281L26.5938 82.2344L26.1719 82.0625L25.7813 81.8438L25.4219 81.5469L25.125 81.2188L24.8906 80.8281L24.7031 80.4219L24.5937 79.9688L24.5625 79.5V29.3125ZM25.5 30.375V79.5L25.5938 80.1094L25.875 80.6562L26.3125 81.0625L26.5781 81.2188L27.1719 81.3906L76.2812 87.2969V37.0781L25.5 30.375Z" fill="#14161A"/>
<path fill-rule="evenodd" clip-rule="evenodd" d="M109.859 21.3906L76.2969 36.2656V88.3594L108.125 74.8281L108.766 74.4531L109.047 74.2031L109.484 73.625L109.766 72.9531L109.859 72.2031V21.3906Z" fill="white"/>
<path d="M109.859 21.3906L76.2969 36.2656V88.3594L108.125 74.8281L108.766 74.4531L109.047 74.2031L109.484 73.625L109.766 72.9531L109.859 72.2031V21.3906ZM108.922 22.8281V72.2031L108.891 72.5938L108.781 72.9375L108.609 73.2656L108.375 73.5469L108.094 73.7813L107.75 73.9688L77.2344 86.9375V36.875L108.922 22.8281Z" fill="#14161A"/>
<path fill-rule="evenodd" clip-rule="evenodd" d="M61.4531 16.4062L110.797 21.3438L76.625 36.3906L24.5625 29.2656L61.4531 16.4062Z" fill="#4080FF"/>
<path fill-rule="evenodd" clip-rule="evenodd" d="M76.375 36.3906L110.734 21.3906L121.219 36.7656L121.438 37.1719L121.578 37.5781L121.641 38V38.4375L121.562 38.8438L121.406 39.25L121.188 39.6094L120.906 39.9375L120.562 40.2344L120.234 40.4219L91.9219 54.0625L91.1719 54.2812L90.4219 54.2656L89.7031 54.0313L89.0938 53.5937L88.8281 53.2969L76.375 36.3906Z" fill="white"/>
<path d="M110.734 21.3906L121.219 36.7656L121.438 37.1719L121.578 37.5781L121.641 38V38.4375L121.562 38.8438L121.406 39.25L121.188 39.6094L120.906 39.9375L120.562 40.2344L120.234 40.4219L91.9219 54.0625L91.1719 54.2812L90.4219 54.2656L89.7031 54.0313L89.0938 53.5937L88.8281 53.2969L76.375 36.3906L110.734 21.3906ZM110.406 22.5625L77.8281 36.7812L89.5781 52.7344L89.8281 53L90.125 53.2031L90.4375 53.3125L90.7813 53.375L91.125 53.3438L91.4688 53.2344L119.828 39.5781L120.25 39.2812L120.422 39.0781L120.656 38.5938L120.703 38.0625L120.578 37.5469L120.438 37.2969L110.406 22.5625Z" fill="#14161A"/>
<path fill-rule="evenodd" clip-rule="evenodd" d="M77.2344 36.2656L24.5313 29.1406L14.0469 43.5625L13.8125 43.9531L13.6719 44.3594L13.5938 44.7813L13.5781 45.2031L13.6562 45.625L13.7813 46.0312L13.9844 46.4062L14.2656 46.7344L14.6094 47.0469L14.9531 47.25L15.3125 47.4062L15.7031 47.4844L62.0625 54.5625L62.5313 54.5938L62.9688 54.5312L63.3906 54.4062L63.7969 54.1875L64.1406 53.9219L64.4531 53.5781L77.2344 36.2656Z" fill="white"/>
<path d="M24.5313 29.1406L14.0469 43.5625L13.8125 43.9531L13.6719 44.3594L13.5938 44.7813L13.5781 45.2031L13.6562 45.625L13.7813 46.0312L13.9844 46.4062L14.2656 46.7344L14.6094 47.0469L14.9531 47.25L15.3125 47.4062L15.7031 47.4844L62.0625 54.5625L62.5313 54.5938L62.9688 54.5312L63.3906 54.4062L63.7969 54.1875L64.1406 53.9219L64.4531 53.5781L77.2344 36.2656L24.5313 29.1406ZM24.9531 30.1406L75.5313 36.9844L63.7031 53.0156L63.5156 53.2344L63.0625 53.5312L62.5313 53.6406H62.25L15.8438 46.5625L15.4844 46.4688L15.1563 46.2812L14.7656 45.8906L14.5625 45.3906L14.5156 44.875L14.5625 44.6094L14.8125 44.1094L24.9531 30.1406Z" fill="#14161A"/>
<path d="M61.5469 16.5625L61.7344 16.5937L61.875 16.6875L61.9844 16.8437L62.0156 17.0313V34.5781L61.9844 34.7656L61.875 34.9219L61.7344 35.0156L61.5469 35.0469L61.3594 35.0156L61.2187 34.9219L61.125 34.7656L61.0781 34.5781V17.0313L61.125 16.8437L61.2187 16.6875L61.3594 16.5937L61.5469 16.5625Z" fill="#14161A"/>
<path d="M87.4687 8.82812L88.1719 8.95312L88.75 9.29688L89.1875 9.8125L89.3281 10.1094L89.4531 10.8125L89.3281 11.5L88.9844 12.0781L88.4687 12.5156L87.8281 12.75L87.4687 12.7812L87.1094 12.75L86.7813 12.6563L86.1875 12.3125L85.7656 11.7969L85.6094 11.5L85.5 10.8125L85.6094 10.1094L85.9531 9.53125L86.4688 9.09375L86.7813 8.95312L87.4687 8.82812ZM87.4687 9.34375L86.9531 9.4375L86.7344 9.53125L86.4375 9.76563L86.2031 10.0625L86.0937 10.2969L86 10.8125L86.0937 11.3125L86.2031 11.5469L86.4375 11.8437L86.7344 12.0781L87.2031 12.25L87.4687 12.2656L87.9844 12.1875L88.2187 12.0781L88.5156 11.8437L88.7344 11.5469L88.8437 11.3125L88.9375 10.8125L88.8437 10.2969L88.7344 10.0625L88.5156 9.76563L88.2187 9.53125L87.9844 9.4375L87.4687 9.34375Z" fill="#14161A"/>
<path fill-rule="evenodd" clip-rule="evenodd" d="M46.25 3.40625L46.1875 3.98438L46.0469 4.51562L45.8125 5.01562L45.5 5.45312L45.1094 5.84375L44.6719 6.15625L44.1719 6.39062L43.6406 6.53125L43.0625 6.59375L42.4844 6.53125L41.9531 6.39062L41.4531 6.15625L41 5.84375L40.625 5.45312L40.3125 5.01562L40.0781 4.51562L39.9219 3.98438L39.875 3.40625L39.9219 2.82812L40.0781 2.29688L40.3125 1.79688L40.625 1.34375L41 0.96875L41.4531 0.65625L41.9531 0.421875L42.4844 0.265625L43.0625 0.21875L43.6406 0.265625L44.1719 0.421875L44.6719 0.65625L45.1094 0.96875L45.5 1.34375L45.8125 1.79688L46.0469 2.29688L46.1875 2.82812L46.25 3.40625Z" fill="#4080FF"/>
<path d="M43.0625 0.21875L43.6406 0.265625L44.1719 0.421875L44.6719 0.65625L45.1094 0.96875L45.5 1.34375L45.8125 1.79688L46.0469 2.29688L46.1875 2.82812L46.25 3.40625L46.1875 3.98438L46.0469 4.51562L45.8125 5.01562L45.5 5.45312L45.1094 5.84375L44.6719 6.15625L44.1719 6.39062L43.6406 6.53125L43.0625 6.59375L42.4844 6.53125L41.9531 6.39062L41.4531 6.15625L41 5.84375L40.625 5.45312L40.3125 5.01562L40.0781 4.51562L39.9219 3.98438L39.875 3.40625L39.9219 2.82812L40.0781 2.29688L40.3125 1.79688L40.625 1.34375L41 0.96875L41.4531 0.65625L41.9531 0.421875L42.4844 0.265625L43.0625 0.21875ZM43.0625 0.578125L42.5469 0.625001L42.0781 0.749999L41.625 0.96875L41.2344 1.25L40.9062 1.57812L40.625 1.96875L40.4062 2.42188L40.2812 2.89063L40.2344 3.40625L40.2812 3.92187L40.4062 4.39062L40.625 4.82812L40.9062 5.23438L41.2344 5.5625L41.625 5.84375L42.0781 6.04688L42.5469 6.1875L43.0625 6.23437L43.5781 6.1875L44.0469 6.04688L44.4844 5.84375L44.8906 5.5625L45.2187 5.23438L45.5 4.82812L45.7188 4.39062L45.8437 3.92187L45.8906 3.40625L45.8437 2.89063L45.7188 2.42188L45.5 1.96875L45.2187 1.57812L44.8906 1.25L44.4844 0.96875L44.0469 0.749999L43.5781 0.625001L43.0625 0.578125Z" fill="#4080FF"/>
<path fill-rule="evenodd" clip-rule="evenodd" d="M114.781 81.5L114.75 81.8906L114.641 82.2656L114.453 82.5937L114.203 82.9062L113.906 83.1562L113.563 83.3281L113.188 83.4375L112.813 83.4844L112.422 83.4375L112.047 83.3281L111.703 83.1562L111.406 82.9062L111.156 82.5937L110.984 82.2656L110.859 81.8906L110.828 81.5L110.859 81.1094L110.984 80.75L111.156 80.4063L111.406 80.1094L111.703 79.8594L112.047 79.6719L112.422 79.5625L112.813 79.5156L113.188 79.5625L113.563 79.6719L113.906 79.8594L114.203 80.1094L114.453 80.4063L114.641 80.75L114.75 81.1094L114.781 81.5Z" fill="white"/>
<path fill-rule="evenodd" clip-rule="evenodd" d="M3.78125 42.4844L4.14062 42.5781L4.40625 42.8437L4.46875 43.0156L4.5 44.8906L6.40625 44.9219L6.57812 45L6.82812 45.25L6.92188 45.6094L6.89062 45.9219L6.82812 46.0938L6.57812 46.3438L6.40625 46.4219L4.5 46.4531L4.46875 48.3438L4.40625 48.5L4.14062 48.7656L3.78125 48.8594L3.46875 48.8281L3.29687 48.7656L3.04688 48.5L2.98437 48.3438L2.95313 46.4531L1.07813 46.4219L0.906251 46.3438L0.65625 46.0938L0.5625 45.7344L0.578125 45.4219L0.65625 45.25L0.906251 45L1.07813 44.9219L2.95313 44.8906L2.98437 43.0156L3.04688 42.8437L3.29687 42.5781L3.46875 42.5156L3.78125 42.4844Z" fill="#4080FF"/>
<path d="M3.78125 42.4844L4.14062 42.5781L4.40625 42.8437L4.46875 43.0156L4.5 44.8906L6.40625 44.9219L6.57812 45L6.82812 45.25L6.92188 45.6094L6.89062 45.9219L6.82812 46.0938L6.57812 46.3438L6.40625 46.4219L4.5 46.4531L4.46875 48.3438L4.40625 48.5L4.14062 48.7656L3.78125 48.8594L3.46875 48.8281L3.29687 48.7656L3.04688 48.5L2.98437 48.3438L2.95313 46.4531L1.07813 46.4219L0.906251 46.3438L0.65625 46.0938L0.5625 45.7344L0.578125 45.4219L0.65625 45.25L0.906251 45L1.07813 44.9219L2.95313 44.8906L2.98437 43.0156L3.04688 42.8437L3.29687 42.5781L3.46875 42.5156L3.78125 42.4844ZM3.78125 42.8437L3.53125 42.875L3.40625 42.9531L3.3125 43.2031V45.25H1.26562L1.01563 45.3594L0.906251 45.6094L0.9375 45.875L1.01563 45.9844L1.26562 46.0938H3.3125V48.1406L3.40625 48.3906L3.65625 48.5L3.92187 48.4688L4.03125 48.3906L4.14062 48.1406V46.0938H6.21875L6.46875 45.9844L6.5625 45.7344L6.54688 45.4688L6.46875 45.3594L6.21875 45.25H4.14062V43.2031L4.03125 42.9531L3.78125 42.8437Z" fill="#4080FF"/>
<path d="M101.313 71.2344L101.5 71.1875L101.672 71.2188L101.828 71.3125L101.938 71.4687L101.969 71.6563L101.938 71.8281L101.844 71.9844L101.688 72.0781L89.9688 77.25L89.7812 77.2969L89.6094 77.2656L89.4531 77.1563L89.3438 77.0156L89.3125 76.8281L89.3438 76.6563L89.4375 76.5L89.5938 76.3906L101.313 71.2344Z" fill="#14161A"/>
<path d="M61.5938 15.9375L110.844 21.3281L110.984 22.2344L76.9375 37.2187L76.6875 37.2656L24.6563 30.0625L24.5625 29.1563L61.3906 15.9531L61.5938 15.9375ZM61.6094 16.875L26.6875 29.3906L76.6875 36.3125L109.016 22.0781L61.6094 16.875Z" fill="#14161A"/>
</svg>
