<svg fill="none" xmlns="http://www.w3.org/2000/svg" viewBox="0 0 64 64" class="design-iconfont">
  <rect width="64" height="64" rx="12" fill="#FFF9F7"/>
  <rect x="16" y="16" width="32" height="32" rx="6" fill="url(#zn3yq4i50__paint0_linear_15247_198940)"/>
  <path d="M37.4168 25.4249L33.2585 23.8666C32.5668 23.6083 31.4335 23.6083 30.7418 23.8666L26.5835 25.4249C25.6251 25.7833 24.8418 26.9166 24.8418 27.9333V34.1249C24.8418 35.1083 25.4918 36.3999 26.2835 36.9916L29.8668 39.6666C31.0418 40.5499 32.9751 40.5499 34.1501 39.6666L37.7335 36.9916C38.5251 36.3999 39.1751 35.1083 39.1751 34.1249V27.9333C39.1585 26.9166 38.3751 25.7833 37.4168 25.4249ZM31.9418 27.8583C32.9251 27.8583 33.7251 28.6583 33.7251 29.6416C33.7251 30.6083 32.9668 31.3833 32.0085 31.4166H31.9918H31.9751C31.9585 31.4166 31.9418 31.4166 31.9251 31.4166C30.9251 31.3833 30.1751 30.6083 30.1751 29.6416C30.1668 28.6583 30.9668 27.8583 31.9418 27.8583ZM33.8251 35.6333C33.3168 35.9666 32.6585 36.1416 32.0001 36.1416C31.3418 36.1416 30.6751 35.9749 30.1751 35.6333C29.7001 35.3166 29.4418 34.8833 29.4335 34.4083C29.4335 33.9416 29.7001 33.4916 30.1751 33.1749C31.1835 32.5083 32.8251 32.5083 33.8335 33.1749C34.3085 33.4916 34.5751 33.9249 34.5751 34.3999C34.5668 34.8666 34.3001 35.3166 33.8251 35.6333Z" fill="#fff"/>
  <defs>
    <linearGradient id="zn3yq4i50__paint0_linear_15247_198940" x1="32.6957" y1="48" x2="32.6957" y2="16" gradientUnits="userSpaceOnUse">
      <stop stop-color="#FF903E"/>
      <stop offset="1" stop-color="#FF5A5A"/>
    </linearGradient>
  </defs>
</svg>
