<svg fill="none" xmlns="http://www.w3.org/2000/svg" viewBox="0 0 64 64" class="design-iconfont">
  <rect width="64" height="64" rx="12" fill="#EBFAFF"/>
  <rect x="16" y="16" width="32" height="32" rx="6" fill="url(#cy1k37vur__paint0_linear_15247_198933)"/>
  <path d="M32.0003 23.667C29.817 23.667 28.042 25.442 28.042 27.6253C28.042 29.767 29.717 31.5003 31.9003 31.5753C31.967 31.567 32.0337 31.567 32.0837 31.5753C32.1003 31.5753 32.1087 31.5753 32.1253 31.5753C32.1337 31.5753 32.1337 31.5753 32.142 31.5753C34.2753 31.5003 35.9503 29.767 35.9587 27.6253C35.9587 25.442 34.1837 23.667 32.0003 23.667Z" fill="#fff"/>
  <path d="M36.2328 33.7914C33.9078 32.2414 30.1161 32.2414 27.7745 33.7914C26.7161 34.4997 26.1328 35.4581 26.1328 36.4831C26.1328 37.5081 26.7161 38.4581 27.7661 39.1581C28.9328 39.9414 30.4661 40.3331 31.9995 40.3331C33.5328 40.3331 35.0661 39.9414 36.2328 39.1581C37.2828 38.4497 37.8661 37.4997 37.8661 36.4664C37.8578 35.4414 37.2828 34.4914 36.2328 33.7914ZM33.6161 37.2164C33.8578 37.4581 33.8578 37.8581 33.6161 38.0997C33.4911 38.2247 33.3328 38.2831 33.1745 38.2831C33.0161 38.2831 32.8578 38.2247 32.7328 38.0997L31.9995 37.3664L31.2661 38.0997C31.1411 38.2247 30.9828 38.2831 30.8245 38.2831C30.6661 38.2831 30.5078 38.2247 30.3828 38.0997C30.1411 37.8581 30.1411 37.4581 30.3828 37.2164L31.1161 36.4831L30.3828 35.7497C30.1411 35.5081 30.1411 35.1081 30.3828 34.8664C30.6245 34.6247 31.0245 34.6247 31.2661 34.8664L31.9995 35.5997L32.7328 34.8664C32.9745 34.6247 33.3745 34.6247 33.6161 34.8664C33.8578 35.1081 33.8578 35.5081 33.6161 35.7497L32.8828 36.4831L33.6161 37.2164Z" fill="#fff"/>
  <defs>
    <linearGradient id="cy1k37vur__paint0_linear_15247_198933" x1="32.6957" y1="48" x2="32.6957" y2="16" gradientUnits="userSpaceOnUse">
      <stop stop-color="#76DFFF"/>
      <stop offset="1" stop-color="#3FA3FF"/>
    </linearGradient>
  </defs>
</svg>
