<svg fill="none" xmlns="http://www.w3.org/2000/svg" viewBox="0 0 28 28" class="design-iconfont">
  <path d="M20.7783 6.40467V7.26801L16.6483 4.87634C15.085 3.97801 12.9033 3.97801 11.3517 4.87634L7.22168 7.27967V6.40467C7.22168 3.77967 8.65668 2.33301 11.2817 2.33301H16.7183C19.3433 2.33301 20.7783 3.77967 20.7783 6.40467Z" fill="url(#p8f3purb9__paint0_linear_15250_22313)"/>
  <path d="M20.813 9.29861L20.6497 9.21694L19.063 8.30694L15.773 6.40527C14.7697 5.82194 13.2297 5.82194 12.2263 6.40527L8.93634 8.29527L7.34967 9.22861L7.13967 9.33361C5.09801 10.7103 4.95801 10.9669 4.95801 13.1719V18.4453C4.95801 20.6503 5.09801 20.9069 7.18634 22.3186L12.2263 25.2236C12.728 25.5269 13.358 25.6553 13.9997 25.6553C14.6297 25.6553 15.2713 25.5153 15.773 25.2236L20.8597 22.2836C22.913 20.9069 23.0413 20.6619 23.0413 18.4453V13.1719C23.0413 10.9669 22.9013 10.7103 20.813 9.29861Z" fill="url(#p8f3purb9__paint1_linear_15250_22313)"/>
  <path d="M13.2461 15.7988H14.1191C14.4277 15.7988 14.6816 15.7461 14.8809 15.6406C15.084 15.5312 15.2344 15.3828 15.332 15.1953C15.4336 15.0039 15.4844 14.7832 15.4844 14.5332C15.4844 14.2871 15.4395 14.0742 15.3496 13.8945C15.2598 13.7109 15.123 13.5703 14.9395 13.4727C14.7598 13.3711 14.5293 13.3203 14.248 13.3203C14.0215 13.3203 13.8125 13.3652 13.6211 13.4551C13.4336 13.5449 13.2832 13.6738 13.1699 13.8418C13.0605 14.0059 13.0059 14.2031 13.0059 14.4336H11.4531C11.4531 13.9727 11.5742 13.5684 11.8164 13.2207C12.0625 12.8691 12.3945 12.5938 12.8125 12.3945C13.2305 12.1953 13.6973 12.0957 14.2129 12.0957C14.7754 12.0957 15.2676 12.1895 15.6895 12.377C16.1152 12.5605 16.4453 12.832 16.6797 13.1914C16.918 13.5508 17.0371 13.9961 17.0371 14.5273C17.0371 14.7812 16.9766 15.0352 16.8555 15.2891C16.7383 15.5391 16.5645 15.7656 16.334 15.9688C16.1074 16.168 15.8281 16.3301 15.4961 16.4551C15.168 16.5762 14.791 16.6367 14.3652 16.6367H13.2461V15.7988ZM13.2461 16.9941V16.168H14.3652C14.8457 16.168 15.2617 16.2246 15.6133 16.3379C15.9688 16.4473 16.2617 16.6035 16.4922 16.8066C16.7227 17.0059 16.8926 17.2383 17.002 17.5039C17.1152 17.7695 17.1719 18.0547 17.1719 18.3594C17.1719 18.7578 17.0977 19.1133 16.9492 19.4258C16.8008 19.7344 16.5918 19.9961 16.3223 20.2109C16.0566 20.4258 15.7441 20.5898 15.3848 20.7031C15.0254 20.8125 14.6367 20.8672 14.2188 20.8672C13.8555 20.8672 13.502 20.8184 13.1582 20.7207C12.8184 20.6191 12.5117 20.4688 12.2383 20.2695C11.9648 20.0664 11.748 19.8125 11.5879 19.5078C11.4277 19.1992 11.3477 18.8418 11.3477 18.4355H12.9004C12.9004 18.6699 12.957 18.8789 13.0703 19.0625C13.1875 19.2461 13.3477 19.3906 13.5508 19.4961C13.7578 19.5977 13.9902 19.6484 14.248 19.6484C14.5332 19.6484 14.7773 19.5977 14.9805 19.4961C15.1875 19.3906 15.3457 19.2422 15.4551 19.0508C15.5645 18.8555 15.6191 18.623 15.6191 18.3535C15.6191 18.0332 15.5586 17.7734 15.4375 17.5742C15.3164 17.375 15.1426 17.2285 14.916 17.1348C14.6934 17.041 14.4277 16.9941 14.1191 16.9941H13.2461Z" fill="#B46A43"/>
  <defs>
    <linearGradient id="p8f3purb9__paint0_linear_15250_22313" x1="14" y1="2.33301" x2="14" y2="7.27967" gradientUnits="userSpaceOnUse">
      <stop stop-color="#FFE6DB"/>
      <stop offset="1" stop-color="#F0AD88"/>
    </linearGradient>
    <linearGradient id="p8f3purb9__paint1_linear_15250_22313" x1="13.9997" y1="5.96777" x2="13.9997" y2="25.6553" gradientUnits="userSpaceOnUse">
      <stop stop-color="#FFE6DB"/>
      <stop offset="1" stop-color="#F0AD88"/>
    </linearGradient>
  </defs>
</svg>
