<svg fill="none" xmlns="http://www.w3.org/2000/svg" viewBox="0 0 28 28" class="design-iconfont">
  <path d="M20.7783 6.40467V7.26801L16.6483 4.87634C15.085 3.97801 12.9033 3.97801 11.3517 4.87634L7.22168 7.27967V6.40467C7.22168 3.77967 8.65668 2.33301 11.2817 2.33301H16.7183C19.3433 2.33301 20.7783 3.77967 20.7783 6.40467Z" fill="url(#h50jnu21l__paint0_linear_15250_22301)"/>
  <path d="M21.105 9.45583L20.9417 9.37417L19.355 8.46417L16.065 6.5625C15.0617 5.97917 13.5217 5.97917 12.5183 6.5625L9.22833 8.4525L7.64167 9.38583L7.43167 9.49083C5.39 10.8675 5.25 11.1242 5.25 13.3292V18.6025C5.25 20.8075 5.39 21.0642 7.47833 22.4758L12.5183 25.3808C13.02 25.6842 13.65 25.8125 14.2917 25.8125C14.9217 25.8125 15.5633 25.6725 16.065 25.3808L21.1517 22.4408C23.205 21.0642 23.3333 20.8192 23.3333 18.6025V13.3292C23.3333 11.1242 23.1933 10.8675 21.105 9.45583Z" fill="url(#h50jnu21l__paint1_linear_15250_22301)"/>
  <path d="M15.5371 12.1953V20.75H13.9844V14.0059L11.9277 14.6855V13.4316L15.3613 12.1953H15.5371Z" fill="#BA7816"/>
  <defs>
    <linearGradient id="h50jnu21l__paint0_linear_15250_22301" x1="14" y1="2.33301" x2="14" y2="7.27967" gradientUnits="userSpaceOnUse">
      <stop stop-color="#FFEDAB"/>
      <stop offset="1" stop-color="#F4C419"/>
    </linearGradient>
    <linearGradient id="h50jnu21l__paint1_linear_15250_22301" x1="14.2917" y1="6.125" x2="14.2917" y2="25.8125" gradientUnits="userSpaceOnUse">
      <stop stop-color="#FFEDAB"/>
      <stop offset="1" stop-color="#F4C419"/>
    </linearGradient>
  </defs>
</svg>
