<svg fill="none" xmlns="http://www.w3.org/2000/svg" viewBox="0 0 28 28" class="design-iconfont">
  <path d="M20.7783 6.40467V7.26801L16.6483 4.87634C15.085 3.97801 12.9033 3.97801 11.3517 4.87634L7.22168 7.27967V6.40467C7.22168 3.77967 8.65668 2.33301 11.2817 2.33301H16.7183C19.3433 2.33301 20.7783 3.77967 20.7783 6.40467Z" fill="url(#j9qenlsur__paint0_linear_15250_22307)"/>
  <path d="M20.813 9.29861L20.6497 9.21694L19.063 8.30694L15.773 6.40527C14.7697 5.82194 13.2297 5.82194 12.2263 6.40527L8.93634 8.29527L7.34967 9.22861L7.13967 9.33361C5.09801 10.7103 4.95801 10.9669 4.95801 13.1719V18.4453C4.95801 20.6503 5.09801 20.9069 7.18634 22.3186L12.2263 25.2236C12.728 25.5269 13.358 25.6553 13.9997 25.6553C14.6297 25.6553 15.2713 25.5153 15.773 25.2236L20.8597 22.2836C22.913 20.9069 23.0413 20.6619 23.0413 18.4453V13.1719C23.0413 10.9669 22.9013 10.7103 20.813 9.29861Z" fill="url(#j9qenlsur__paint1_linear_15250_22307)"/>
  <path d="M17.3301 18.5312V19.75H11.5527V18.707L14.3242 15.7129C14.6133 15.3848 14.8418 15.0996 15.0098 14.8574C15.1777 14.6152 15.2969 14.3965 15.3672 14.2012C15.4414 14.002 15.4785 13.8125 15.4785 13.6328C15.4785 13.3711 15.4316 13.1426 15.3379 12.9473C15.2441 12.748 15.1074 12.5938 14.9277 12.4844C14.752 12.375 14.5352 12.3203 14.2773 12.3203C13.9922 12.3203 13.748 12.3867 13.5449 12.5195C13.3457 12.6484 13.1934 12.8281 13.0879 13.0586C12.9863 13.2891 12.9355 13.5527 12.9355 13.8496H11.3828C11.3828 13.3457 11.5 12.8867 11.7344 12.4727C11.9688 12.0547 12.3047 11.7207 12.7422 11.4707C13.1797 11.2207 13.6992 11.0957 14.3008 11.0957C14.8867 11.0957 15.3828 11.1934 15.7891 11.3887C16.1953 11.5801 16.5039 11.8535 16.7148 12.209C16.9258 12.5645 17.0312 12.9883 17.0312 13.4805C17.0312 13.7539 16.9863 14.0234 16.8965 14.2891C16.8066 14.5547 16.6797 14.8184 16.5156 15.0801C16.3555 15.3379 16.1641 15.5996 15.9414 15.8652C15.7188 16.1309 15.4707 16.4023 15.1973 16.6797L13.5332 18.5312H17.3301Z" fill="#7B898B"/>
  <defs>
    <linearGradient id="j9qenlsur__paint0_linear_15250_22307" x1="14" y1="2.33301" x2="14" y2="7.27967" gradientUnits="userSpaceOnUse">
      <stop stop-color="#F2F2F2"/>
      <stop offset="1" stop-color="#D3DADC"/>
    </linearGradient>
    <linearGradient id="j9qenlsur__paint1_linear_15250_22307" x1="13.9997" y1="5.96777" x2="13.9997" y2="25.6553" gradientUnits="userSpaceOnUse">
      <stop stop-color="#F2F2F2"/>
      <stop offset="1" stop-color="#D3DADC"/>
    </linearGradient>
  </defs>
</svg>
