<svg fill="none" xmlns="http://www.w3.org/2000/svg" viewBox="0 0 16 16" class="design-iconfont">
  <path d="M9.43532 14.6667C9.25754 14.6667 9.10087 14.6067 8.96532 14.4867C8.83442 14.3667 8.74796 14.206 8.71999 14.0307C8.61681 13.4283 8.48781 12.8306 8.33332 12.2393C8.20265 11.7598 8.04154 11.368 7.84998 11.064C7.66653 10.7642 7.41392 10.5128 7.11332 10.3307C6.80932 10.1467 6.42132 9.99913 5.94932 9.88802C5.37192 9.75705 4.78916 9.65095 4.20265 9.57002C4.02048 9.54654 3.85193 9.46109 3.72532 9.32802C3.60398 9.19468 3.54332 9.03557 3.54332 8.85068C3.54332 8.66624 3.60643 8.50735 3.73265 8.37402C3.85932 8.23535 4.01821 8.15468 4.20932 8.13202C4.80056 8.07005 5.38823 7.9777 5.96999 7.85535C6.44732 7.74868 6.84021 7.60335 7.14865 7.41935C7.45431 7.23321 7.71155 6.97734 7.89932 6.67268C8.09576 6.35935 8.25465 5.96068 8.37598 5.47668C8.49732 4.98779 8.61176 4.38846 8.71932 3.67868C8.74776 3.48935 8.82732 3.33713 8.95798 3.22202C9.09398 3.10202 9.2531 3.04202 9.43532 3.04202C9.61754 3.04202 9.77421 3.10202 9.90532 3.22202C10.0409 3.33757 10.1249 3.48979 10.1573 3.67868C10.284 4.38846 10.4104 4.98535 10.5367 5.46935C10.6673 5.94935 10.8284 6.34135 11.02 6.64535C11.212 6.94891 11.46 7.19335 11.764 7.37868C12.0675 7.56268 12.4533 7.71002 12.9213 7.82068C13.4986 7.95025 14.0814 8.05413 14.668 8.13202C14.8644 8.16402 15.0233 8.2469 15.1447 8.38068C15.2713 8.51402 15.3344 8.67091 15.334 8.85135C15.334 9.04024 15.2709 9.20379 15.1447 9.34202C15.0184 9.47535 14.8571 9.55135 14.6607 9.57002C13.9687 9.64868 13.3842 9.74313 12.9073 9.85335C12.43 9.96002 12.0349 10.1053 11.722 10.2893C11.4147 10.4734 11.157 10.7297 10.9713 11.036C10.7793 11.3498 10.6227 11.7487 10.5013 12.2327C10.3593 12.8265 10.2445 13.4264 10.1573 14.0307C10.1337 14.2075 10.0465 14.3696 9.91198 14.4867C9.78132 14.6067 9.62243 14.6667 9.43532 14.6667ZM4.24465 6.38535C4.01132 6.38535 3.88043 6.26535 3.85198 6.02535C3.81133 5.67527 3.75528 5.32716 3.68398 4.98202C3.62754 4.72868 3.53398 4.53735 3.40332 4.40802C3.27221 4.27424 3.07576 4.17513 2.81398 4.11068C2.55176 4.04579 2.1871 3.98135 1.71998 3.91735C1.46265 3.87957 1.33398 3.75002 1.33398 3.52868C1.33398 3.30735 1.44865 3.17846 1.67798 3.14202C2.05459 3.07921 2.42883 3.00293 2.79998 2.91335C3.0711 2.84402 3.27221 2.74713 3.40332 2.62268C3.53398 2.49379 3.62732 2.30713 3.68332 2.06268C3.73976 1.81379 3.79598 1.47046 3.85198 1.03268C3.87998 0.788238 4.0111 0.666016 4.24532 0.666016C4.47421 0.666016 4.6051 0.783571 4.63798 1.01868C4.69398 1.47957 4.74998 1.83913 4.80598 2.09735C4.86687 2.35557 4.96265 2.54913 5.09332 2.67802C5.22443 2.80246 5.42332 2.89468 5.68998 2.95468C5.95665 3.01513 6.32598 3.07735 6.79798 3.14135C6.90021 3.15113 6.98443 3.19268 7.05065 3.26602C7.11598 3.33935 7.14865 3.4269 7.14865 3.52868C7.14865 3.74557 7.03643 3.87468 6.81198 3.91602C6.33065 3.99468 5.95421 4.0709 5.68265 4.14468C5.41598 4.21357 5.21732 4.31268 5.08665 4.44202C4.95554 4.56602 4.86198 4.75268 4.80598 5.00202C4.74998 5.25135 4.69398 5.59735 4.63798 6.04002C4.62645 6.13674 4.57883 6.22555 4.50465 6.28868C4.43292 6.35195 4.34029 6.38639 4.24465 6.38535Z" fill="url(#z6l49pxxt__paint0_linear_15412_94531)"/>
  <defs>
    <linearGradient id="z6l49pxxt__paint0_linear_15412_94531" x1="3.67232" y1="3.61587" x2="13.0218" y2="12.7042" gradientUnits="userSpaceOnUse">
      <stop stop-color="#66D9FF"/>
      <stop offset="1" stop-color="#631AFE"/>
    </linearGradient>
  </defs>
</svg>
