<svg width="16.000000" height="16.000000" viewBox="0 0 16 16" fill="none" xmlns="http://www.w3.org/2000/svg" xmlns:xlink="http://www.w3.org/1999/xlink">
	<desc>
			Created with Pixso.
	</desc>
	<defs>
		<clipPath id="clip352_143198">
			<rect id="Icon / HomeFilled" rx="8.000000" width="16.000000" height="16.000000" fill="white" fill-opacity="0"/>
		</clipPath>
	</defs>
	<g clip-path="url(#clip352_143198)">
		<path id="Vector" d="M14.78 7.89L8.35 1.45C8.3 1.41 8.25 1.37 8.19 1.34C8.13 1.32 8.06 1.31 8 1.31C7.93 1.31 7.87 1.32 7.81 1.34C7.75 1.37 7.69 1.41 7.64 1.45L1.21 7.89C1.02 8.07 0.91 8.33 0.91 8.59C0.91 9.15 1.36 9.59 1.91 9.59L2.59 9.59L2.59 14.18C2.59 14.46 2.82 14.68 3.09 14.68L7 14.68L7 11.18L8.75 11.18L8.75 14.68L12.9 14.68C13.18 14.68 13.4 14.46 13.4 14.18L13.4 9.59L14.08 9.59C14.34 9.59 14.6 9.49 14.79 9.3C15.17 8.91 15.17 8.28 14.78 7.89Z" fill="#FFFFFF" fill-opacity="0.650000" fill-rule="nonzero"/>
	</g>
</svg>
